<svg width="22" height="19" viewBox="0 0 22 19" fill="none" xmlns="http://www.w3.org/2000/svg">
<path fill-rule="evenodd" clip-rule="evenodd" d="M21.5685 3.95208L19.0085 13.3388C18.9611 13.513 18.8093 13.6384 18.6294 13.6522L8.66454 14.4187L8.19341 15.3601H17.7435C17.9791 15.3601 18.1702 15.5512 18.1702 15.7868C18.1702 16.0225 17.9791 16.2135 17.7435 16.2135H7.5034C7.35552 16.2135 7.21816 16.137 7.1404 16.0112C7.06264 15.8854 7.05557 15.7283 7.1217 15.596L7.67211 14.4952L7.53557 14.5056L7.5034 14.5068C7.30747 14.5069 7.13664 14.3736 7.08919 14.1835L3.84504 1.16336C3.79305 0.979604 3.62513 0.8529 3.43416 0.853341H0.676671C0.441027 0.853341 0.25 0.662314 0.25 0.426671C0.25 0.191027 0.441027 0 0.676671 0H3.43416C4.01369 0.000889804 4.52074 0.390021 4.6715 0.949598L5.28736 3.4213C5.31462 3.41609 5.3423 3.41344 5.37005 3.41337H21.1569C21.2898 3.41338 21.4151 3.47535 21.4958 3.58098C21.5766 3.6866 21.6034 3.82381 21.5685 3.95208ZM9.63679 8.96006C9.63679 8.72441 9.82782 8.53338 10.0635 8.53338H12.1968V6.40003C12.1968 6.16439 12.3878 5.97336 12.6235 5.97336C12.8591 5.97336 13.0502 6.16439 13.0502 6.40003V8.53338H15.1835C15.4192 8.53338 15.6102 8.72441 15.6102 8.96006C15.6102 9.1957 15.4192 9.38673 15.1835 9.38673H13.0502V11.5201C13.0502 11.7557 12.8591 11.9467 12.6235 11.9467C12.3878 11.9467 12.1968 11.7557 12.1968 11.5201V9.38673H10.0635C9.82782 9.38673 9.63679 9.1957 9.63679 8.96006ZM5.49726 4.26672H20.5982L18.2638 12.8243L7.82979 13.6272L5.49726 4.26672ZM8.78344 17.0668C8.31215 17.0668 7.9301 17.4489 7.9301 17.9202C7.9301 18.3915 8.31215 18.7735 8.78344 18.7735C9.25473 18.7735 9.63678 18.3915 9.63678 17.9202C9.63678 17.4489 9.25473 17.0668 8.78344 17.0668ZM15.6102 17.9202C15.6102 17.4489 15.9923 17.0668 16.4635 17.0668C16.9348 17.0668 17.3169 17.4489 17.3169 17.9202C17.3169 18.3915 16.9348 18.7735 16.4635 18.7735C15.9923 18.7735 15.6102 18.3915 15.6102 17.9202Z" fill="#FA541C"/>
</svg>
