<svg width="8" height="20" viewBox="0 0 8 20" fill="none" xmlns="http://www.w3.org/2000/svg">
<path d="M7.3042 7.4864L7.30334 10.6016C7.30334 10.8151 7.17868 10.988 7.02474 10.988H5.44172H4.94172V11.488V18.8487C4.94172 19.062 4.81706 19.235 4.66311 19.235H2.33874C2.18479 19.235 2.06013 19.0622 2.06013 18.8487V11.488V10.988H1.56013H0.278607C0.124805 10.988 0 10.8151 0 10.6016V7.4864C0 7.27291 0.124663 7.09983 0.278607 7.09983H1.56013H2.06013V6.59983V4.94976C2.06013 2.11683 3.34655 0.286499 5.33717 0.286499M7.3042 7.4864C7.3042 7.3839 7.27477 7.28573 7.2226 7.21318C7.17044 7.14064 7.09936 7.09983 7.02545 7.09983H5.44172H4.94172V6.59983V5.27719C4.94172 4.40115 5.09225 3.95643 5.91514 3.95643M7.3042 7.4864H7.02545H6.84267H6.80567C6.80597 7.48708 6.80631 7.48782 6.8067 7.48863C6.80847 7.49233 6.81157 7.49802 6.81667 7.5051C6.83651 7.53269 6.90423 7.59983 7.02545 7.59983H6.80416M7.3042 7.4864L7.02545 7.48633L6.84285 7.48628M5.91514 3.95643L7.10874 3.95584C7.26255 3.95584 7.38721 3.78276 7.38721 3.56947V0.676812C7.38721 0.463717 7.26269 0.290836 7.10903 0.290442M5.91514 3.95643L5.91489 3.45643C5.41436 3.45648 4.96694 3.59744 4.69807 4.01978C4.47077 4.37682 4.44172 4.84561 4.44172 5.27719V7.09983V7.59983H4.94172H6.80416M5.91514 3.95643V3.45643L6.88721 3.45595M7.10903 0.290442L5.33717 0.286499M7.10903 0.290442L7.10817 0.676812L7.10792 0.79044L7.10775 0.79044L7.10804 0.676812L7.10903 0.290442ZM5.33717 0.286499V0.786499M5.33717 0.286499L5.33606 0.786498L5.33665 0.786499C4.51565 0.786657 3.84462 1.15547 3.36125 1.84327C2.86718 2.54631 2.56013 3.60158 2.56013 4.94976V7.09983V7.59983H2.06013H0.5M5.33717 0.786499L0.500571 7.47987C0.500604 7.47988 0.50054 7.48036 0.50028 7.4813M5.33717 0.786499L6.88721 0.789949M5.33717 0.786499L6.88721 0.789949M0.5 7.59983V7.4864C0.5 7.48406 0.500139 7.48237 0.50028 7.4813M0.5 7.59983V10.488M0.5 7.59983H0.278607C0.402984 7.59983 0.470229 7.52896 0.48723 7.50537C0.493165 7.49713 0.496543 7.49073 0.498415 7.4864C0.499408 7.4841 0.499978 7.48239 0.50028 7.4813M0.50028 7.4813L0.5 10.488M0.5 10.488H0.278607C0.402911 10.488 0.47012 10.5588 0.487137 10.5823C0.493197 10.5908 0.496605 10.5973 0.498469 10.6016C0.499424 10.6039 0.499975 10.6055 0.500269 10.6066M0.5 10.488L0.500556 10.608C0.500523 10.608 0.500395 10.6076 0.500269 10.6066M0.5 10.488H2.06013H2.56013V10.988V18.735M0.5 10.488L2.56069 18.8552C2.56065 18.8551 2.56053 18.8547 2.5604 18.8537M0.5 10.488V10.6016C0.5 10.6039 0.500133 10.6055 0.500269 10.6066M0.5 10.488L0.500269 10.6066M2.56013 18.735H2.33874C2.46288 18.735 2.53014 18.8057 2.54726 18.8295C2.55328 18.8378 2.55669 18.8443 2.55857 18.8487C2.55954 18.8509 2.5601 18.8526 2.5604 18.8537M2.56013 18.735H4.44172M2.56013 18.735V18.8487C2.56013 18.851 2.56026 18.8527 2.5604 18.8537M2.5604 18.8537L4.44172 18.735M4.44172 18.735V18.8487C4.44172 18.8529 4.44126 18.855 4.44117 18.8551C4.44108 18.8551 4.44142 18.8529 4.44325 18.8487C4.44511 18.8443 4.4485 18.8378 4.45454 18.8295C4.47153 18.8059 4.53876 18.735 4.66311 18.735H4.44172ZM4.44172 18.735V10.988V10.488H4.94172H6.80337M4.44172 18.735L6.80278 10.6081C6.80275 10.6081 6.80281 10.6076 6.80307 10.6067M6.80337 10.488L6.80334 10.6015V10.6016C6.80334 10.6039 6.80321 10.6056 6.80307 10.6067M6.80337 10.488L6.80416 7.59983M6.80337 10.488H7.02474C6.90059 10.488 6.83333 10.5587 6.81621 10.5824C6.81025 10.5907 6.80685 10.5971 6.80496 10.6015C6.80494 10.6015 6.80493 10.6016 6.80491 10.6016C6.80393 10.6039 6.80337 10.6056 6.80307 10.6067M6.80307 10.6067L6.80416 7.59983M6.80416 7.59983L6.8042 7.4864C6.8042 7.48322 6.80378 7.48139 6.8038 7.48138C6.8038 7.48138 6.80383 7.48151 6.80391 7.48176C6.80409 7.48238 6.80458 7.48391 6.80561 7.48627L6.84285 7.48628M6.80416 7.59983L6.88665 3.57587C6.88662 3.57586 6.88668 3.57537 6.88694 3.57444M6.84285 7.48628L7.02545 7.35496L6.84285 7.48628ZM6.88721 3.45595V3.56947C6.88721 3.57173 6.88708 3.57338 6.88694 3.57444M6.88721 3.45595V0.789949M6.88721 3.45595L7.1085 3.45584C6.98408 3.45593 6.91691 3.52686 6.9 3.55033C6.89399 3.55867 6.8906 3.56513 6.88874 3.56947C6.88779 3.5717 6.88723 3.57336 6.88694 3.57444M6.88694 3.57444L6.88721 0.789949M6.88721 0.789949L7.10769 0.79044C6.98367 0.790102 6.91684 0.719436 6.89999 0.696036C6.89394 0.687639 6.89055 0.681149 6.88871 0.676812C6.88777 0.674622 6.88724 0.672982 6.88695 0.671923M6.88721 0.789949L6.88666 0.670498C6.88669 0.670492 6.88682 0.670958 6.88695 0.671923M6.88721 0.789949V0.676812C6.88721 0.674586 6.88708 0.672964 6.88695 0.671923M6.88721 0.789949L6.88695 0.671923" fill="#334155" stroke="#334155"/>
</svg>
