<svg width="22" height="20" viewBox="0 0 22 20" fill="none" xmlns="http://www.w3.org/2000/svg">
<path fill-rule="evenodd" clip-rule="evenodd" d="M21.8185 4.45208L19.2585 13.8388C19.2111 14.013 19.0593 14.1384 18.8794 14.1522L8.91454 14.9187L8.44341 15.8601H17.9935C18.2291 15.8601 18.4202 16.0512 18.4202 16.2868C18.4202 16.5225 18.2291 16.7135 17.9935 16.7135H7.7534C7.60552 16.7135 7.46816 16.637 7.3904 16.5112C7.31264 16.3854 7.30557 16.2283 7.3717 16.096L7.92211 14.9952L7.78557 15.0056L7.7534 15.0068C7.55747 15.0069 7.38664 14.8736 7.33919 14.6835L4.09504 1.66336C4.04305 1.4796 3.87513 1.3529 3.68416 1.35334H0.926671C0.691027 1.35334 0.5 1.16231 0.5 0.926671C0.5 0.691027 0.691027 0.5 0.926671 0.5H3.68416C4.26369 0.50089 4.77074 0.890021 4.9215 1.4496L5.53736 3.9213C5.56462 3.91609 5.5923 3.91344 5.62005 3.91337H21.4069C21.5398 3.91338 21.6651 3.97535 21.7458 4.08098C21.8266 4.1866 21.8534 4.32381 21.8185 4.45208ZM9.88679 9.46006C9.88679 9.22441 10.0778 9.03338 10.3135 9.03338H12.4468V6.90003C12.4468 6.66439 12.6378 6.47336 12.8735 6.47336C13.1091 6.47336 13.3002 6.66439 13.3002 6.90003V9.03338H15.4335C15.6692 9.03338 15.8602 9.22441 15.8602 9.46006C15.8602 9.6957 15.6692 9.88673 15.4335 9.88673H13.3002V12.0201C13.3002 12.2557 13.1091 12.4467 12.8735 12.4467C12.6378 12.4467 12.4468 12.2557 12.4468 12.0201V9.88673H10.3135C10.0778 9.88673 9.88679 9.6957 9.88679 9.46006ZM5.74726 4.76672H20.8482L18.5138 13.3243L8.07979 14.1272L5.74726 4.76672ZM9.03344 17.5668C8.56215 17.5668 8.1801 17.9489 8.1801 18.4202C8.1801 18.8915 8.56215 19.2735 9.03344 19.2735C9.50473 19.2735 9.88678 18.8915 9.88678 18.4202C9.88678 17.9489 9.50473 17.5668 9.03344 17.5668ZM15.8602 18.4202C15.8602 17.9489 16.2423 17.5668 16.7135 17.5668C17.1848 17.5668 17.5669 17.9489 17.5669 18.4202C17.5669 18.8915 17.1848 19.2735 16.7135 19.2735C16.2423 19.2735 15.8602 18.8915 15.8602 18.4202Z" fill="white"/>
</svg>
