<svg width="14" height="16" viewBox="0 0 14 16" fill="none" xmlns="http://www.w3.org/2000/svg">
<path d="M0.55814 13.0233C0.253023 13.0233 0 12.7702 0 12.4651V4.27907C0 0.997209 0.997209 0 4.27907 0H9.48837C12.7702 0 13.7674 0.997209 13.7674 4.27907V11.7209C13.7674 11.84 13.7674 11.9516 13.76 12.0707C13.7377 12.3758 13.4623 12.614 13.1647 12.5916C12.8595 12.5693 12.6214 12.3014 12.6437 11.9963C12.6512 11.907 12.6512 11.8102 12.6512 11.7209V4.27907C12.6512 1.62233 12.1526 1.11628 9.48837 1.11628H4.27907C1.61488 1.11628 1.11628 1.62233 1.11628 4.27907V12.4651C1.11628 12.7702 0.863256 13.0233 0.55814 13.0233Z" fill="#FA541C"/>
<path d="M10.6047 16H3.16279C1.4214 16 0 14.5786 0 12.8372V12.3535C0 10.8726 1.20558 9.67444 2.67907 9.67444H13.2093C13.5144 9.67444 13.7674 9.92746 13.7674 10.2326V12.8372C13.7674 14.5786 12.346 16 10.6047 16ZM2.67907 10.7907C1.81581 10.7907 1.11628 11.4903 1.11628 12.3535V12.8372C1.11628 13.9684 2.03163 14.8837 3.16279 14.8837H10.6047C11.7358 14.8837 12.6512 13.9684 12.6512 12.8372V10.7907H2.67907Z" fill="#FA541C"/>
<path d="M9.86026 4.83723H3.90677C3.60166 4.83723 3.34863 4.5842 3.34863 4.27909C3.34863 3.97397 3.60166 3.72095 3.90677 3.72095H9.86026C10.1654 3.72095 10.4184 3.97397 10.4184 4.27909C10.4184 4.5842 10.1654 4.83723 9.86026 4.83723Z" fill="#FA541C"/>
<path d="M7.6277 7.44184H3.90677C3.60166 7.44184 3.34863 7.18882 3.34863 6.8837C3.34863 6.57858 3.60166 6.32556 3.90677 6.32556H7.6277C7.93282 6.32556 8.18584 6.57858 8.18584 6.8837C8.18584 7.18882 7.93282 7.44184 7.6277 7.44184Z" fill="#FA541C"/>
</svg>
