<svg width="24" height="25" viewBox="0 0 24 25" fill="none" xmlns="http://www.w3.org/2000/svg">
<path d="M18.5204 10.2585C18.5204 10.2585 18.0214 16.4477 17.7319 19.0548C17.5941 20.3 16.8249 21.0296 15.565 21.0526C13.1675 21.0958 10.7672 21.0985 8.37053 21.048C7.15842 21.0232 6.40212 20.2844 6.26704 19.0612C5.97573 16.4312 5.47949 10.2585 5.47949 10.2585" stroke="#F5222D" stroke-width="1.5" stroke-linecap="round" stroke-linejoin="round"/>
<path d="M19.7919 7.29163H4.20825" stroke="#F5222D" stroke-width="1.5" stroke-linecap="round" stroke-linejoin="round"/>
<path d="M16.7887 7.29169C16.0673 7.29169 15.4461 6.78167 15.3046 6.07499L15.0813 4.95754C14.9435 4.442 14.4766 4.08545 13.9446 4.08545H10.0546C9.52254 4.08545 9.05571 4.442 8.91787 4.95754L8.69456 6.07499C8.55304 6.78167 7.93183 7.29169 7.21045 7.29169" stroke="#F5222D" stroke-width="1.5" stroke-linecap="round" stroke-linejoin="round"/>
</svg>
