<svg width="14" height="20" viewBox="0 0 14 20" fill="none" xmlns="http://www.w3.org/2000/svg">
<path d="M4.17642 18.6212L4.17644 18.6212C5.1228 18.701 6.09771 18.7383 7.15569 18.7348L7.16054 18.7347C7.20425 18.735 7.24792 18.735 7.29342 18.735C8.302 18.735 9.23465 18.6976 10.1409 18.6212L10.183 19.1194L10.1409 18.6212C10.8825 18.5586 11.5726 18.2044 12.1377 17.5654L12.1377 17.5654C12.6823 16.9496 13.0743 16.0941 13.2768 14.9933L13.2768 14.9933C13.4547 14.0267 13.4653 13.0724 13.4748 12.1026L13.4748 12.1025C13.4817 11.4113 13.4889 10.5935 13.4902 9.76225C13.4902 9.76205 13.4902 9.76186 13.4902 9.76166V9.75982C13.4902 9.75962 13.4902 9.75943 13.4902 9.75923C13.4889 8.92801 13.4817 8.11023 13.4748 7.41897L13.4748 7.41892C13.4653 6.44917 13.4546 5.49461 13.2768 4.52816C13.0743 3.4274 12.6823 2.57188 12.1377 1.95609L12.1377 1.95607C11.5726 1.31713 10.8825 0.96292 10.141 0.900333L4.17642 18.6212ZM4.17642 18.6212C3.43487 18.5586 2.74473 18.2044 2.17968 17.5654C1.63512 16.9496 1.24308 16.0941 1.04052 14.9933L4.17642 18.6212ZM0.827149 9.76247C0.828608 10.5937 0.835678 11.4114 0.842552 12.1025L0.842552 12.1026C0.852096 13.0725 0.862724 14.0269 1.04052 14.9933L0.827149 9.76247ZM0.827149 9.76247C0.828608 8.92782 0.835678 8.11008 0.842552 7.41897L0.842552 7.41892C0.852095 6.44918 0.862723 5.49476 1.04052 4.52816L0.827149 9.76247ZM2.17968 1.95607C2.74471 1.31714 3.43483 0.962919 4.17647 0.900333L2.17968 1.95607ZM2.17968 1.95607C1.63512 2.57188 1.24309 3.42742 1.04052 4.52812L2.17968 1.95607ZM7.16147 0.786733L7.1583 0.786742C6.09808 0.783162 5.12294 0.820574 4.17652 0.900329L7.16147 0.786733ZM7.16147 0.786733C8.21997 0.78359 9.19463 0.820583 10.1409 0.900328L7.16147 0.786733ZM12.2122 17.0806L12.2122 17.0806C11.6595 17.7056 10.9649 18.0722 10.1601 18.14C9.20475 18.2205 8.22316 18.2579 7.15716 18.2544C6.09419 18.258 5.11243 18.2205 4.15722 18.1399C4.1572 18.1399 4.15717 18.1399 4.15714 18.1399L12.2122 17.0806ZM12.2122 17.0806C12.7264 16.499 13.0577 15.7232 13.226 14.8083C13.3894 13.9203 13.3987 12.9766 13.4072 12.1134L13.4074 12.0922C13.4142 11.4047 13.4213 10.5892 13.4227 9.76162L13.4227 9.75986M12.2122 17.0806L13.4227 9.75986M13.4227 9.75986C13.4213 8.93215 13.4142 8.11675 13.4074 7.4293L13.4072 7.40809C13.3987 6.54489 13.3894 5.60118 13.226 4.7131L13.226 4.71308M13.4227 9.75986L13.226 4.71308M13.226 4.71308C13.0577 3.79815 12.7264 3.02236 12.2122 2.44078L12.2122 2.44071M13.226 4.71308L12.2122 2.44071M12.2122 2.44071C11.6595 1.8159 10.9649 1.44934 10.1602 1.38148L12.2122 2.44071ZM2.10512 2.44078L2.10519 2.44071C2.65784 1.8159 3.35243 1.44934 4.15714 1.38148L2.10512 2.44078ZM2.10512 2.44078C1.59091 3.02236 1.25969 3.79815 1.09135 4.71308L1.09134 4.7131M2.10512 2.44078L1.09134 4.7131M1.09134 4.7131C0.927962 5.60118 0.918672 6.54475 0.910173 7.4081L0.909964 7.42931C0.903185 8.11733 0.89608 8.93331 0.894614 9.76159L0.894617 9.76336M1.09134 4.7131L0.894617 9.76336M0.894617 9.76336C0.89608 10.588 0.903185 11.4042 0.909964 12.0922L1.40994 12.0872L0.894617 9.76336ZM10.1601 1.38148C9.20469 1.30079 8.22317 1.26377 7.15994 1.26695C6.09424 1.26348 5.11259 1.3008 4.15722 1.38148H10.1601ZM7.13194 13.8869C6.41406 13.8869 5.71684 13.4826 5.17984 12.7379C4.64353 11.9942 4.2961 10.9426 4.2961 9.76074C4.2961 8.57891 4.64353 7.52728 5.17984 6.78355C5.71684 6.03886 6.41406 5.63462 7.13194 5.63462C7.84988 5.63462 8.5471 6.03887 9.08407 6.78355C9.62037 7.52728 9.96778 8.5789 9.96778 9.76074C9.96778 10.9426 9.62037 11.9942 9.08407 12.7379C8.5471 13.4826 7.84988 13.8869 7.13194 13.8869ZM7.13194 6.11498C6.3048 6.11498 5.60097 6.58237 5.12317 7.24498C4.64469 7.90854 4.36357 8.79988 4.36357 9.76074C4.36357 10.7216 4.64469 11.6129 5.12317 12.2765C5.60097 12.9391 6.3048 13.4065 7.13194 13.4065C7.95913 13.4065 8.66296 12.9391 9.14075 12.2765C9.61922 11.6129 9.90031 10.7216 9.90031 9.76074C9.90031 8.7999 9.61922 7.90855 9.14075 7.24498C8.66296 6.58237 7.95913 6.11498 7.13194 6.11498ZM10.5408 4.76453C10.5408 4.55116 10.6039 4.3786 10.6808 4.27189C10.7583 4.16447 10.8216 4.15426 10.8414 4.15426C10.8613 4.15426 10.9245 4.16449 11.002 4.27187C11.0789 4.37857 11.142 4.55113 11.142 4.76453C11.142 4.97794 11.0789 5.1505 11.002 5.25719C10.9245 5.36457 10.8613 5.3748 10.8414 5.3748C10.8216 5.3748 10.7583 5.36459 10.6808 5.25717C10.6039 5.15046 10.5408 4.9779 10.5408 4.76453Z" fill="#334155" stroke="#334155"/>
</svg>
