<svg width="80" height="41" viewBox="0 0 80 41" fill="none" xmlns="http://www.w3.org/2000/svg">
<path d="M40 40.0855C62.0914 40.0855 80 36.3545 80 31.7522C80 27.1498 62.0914 23.4188 40 23.4188C17.9086 23.4188 0 27.1498 0 31.7522C0 36.3545 17.9086 40.0855 40 40.0855Z" fill="#FFF8F6"/>
<path d="M35.8333 23.0021C35.8333 24.6188 37.0833 25.9188 38.6166 25.9188H41.7499C43.0832 25.9188 44.1666 24.7855 44.1666 23.3688C44.1666 21.8521 43.4999 21.3021 42.5166 20.9521L37.4999 19.2021C36.5166 18.8521 35.8499 18.3188 35.8499 16.7855C35.8499 15.3855 36.9332 14.2355 38.2666 14.2355H41.3999C42.9332 14.2355 44.1833 15.5355 44.1833 17.1521" stroke="#FA541C" stroke-linecap="round" stroke-linejoin="round"/>
<path d="M40 12.5854V27.5854" stroke="#FA541C" stroke-linecap="round" stroke-linejoin="round"/>
<path d="M56.6666 20.0855C56.6666 29.2855 49.1999 36.7522 39.9999 36.7522C30.7999 36.7522 23.3333 29.2855 23.3333 20.0855C23.3333 10.8855 30.7999 3.41882 39.9999 3.41882" stroke="#FA541C" stroke-linecap="round" stroke-linejoin="round"/>
<path d="M50 5.95215L52.5333 8.48549L57.6 3.41882" stroke="#FA541C" stroke-width="2" stroke-linecap="round" stroke-linejoin="round"/>
</svg>
