<svg width="12" height="20" viewBox="0 0 12 20" fill="none" xmlns="http://www.w3.org/2000/svg">
<path d="M2.27846 10.9465C2.29185 10.8746 2.30581 10.7995 2.31983 10.7242C2.35871 10.5151 2.39801 10.3038 2.42656 10.1526C2.01195 9.47619 1.71529 8.33726 1.71529 7.28712C1.71529 5.93333 2.10199 4.5798 2.84387 3.5513C3.59267 2.5132 4.71372 1.79869 6.13519 1.79869C7.36745 1.79869 8.41661 2.35928 9.14512 3.29765C9.86724 4.22779 10.2639 5.51131 10.2639 6.97327C10.2639 8.58395 9.95769 9.9848 9.42021 11.0024C8.88763 12.0108 8.06947 12.7329 7.03617 12.7329C6.41258 12.7329 5.89289 12.39 5.57594 11.8944C5.26055 11.4013 5.13687 10.7522 5.2567 10.0692L5.25691 10.068C5.34848 9.55336 5.47351 9.01915 5.59125 8.51614C5.63345 8.33582 5.67472 8.15951 5.71317 7.98954C5.86386 7.32341 5.96996 6.7602 5.96996 6.33017C5.96996 5.94557 5.89008 5.64262 5.77287 5.45368C5.6683 5.28512 5.54412 5.21355 5.37342 5.21355C5.19069 5.21355 4.93372 5.34078 4.69531 5.75806C4.46269 6.16521 4.30033 6.77384 4.30033 7.5074C4.30033 7.97409 4.35995 8.36413 4.41875 8.63494C4.4481 8.77008 4.47707 8.87472 4.49788 8.94339C4.50828 8.9777 4.51662 9.00295 4.52192 9.01845L4.52745 9.03427L4.52774 9.03511L4.52781 9.03531L4.52795 9.03566L4.52815 9.03619L4.52816 9.03623L4.52827 9.03652L4.57639 9.16383L4.55217 9.29952L4.05995 9.21166L4.55216 9.29958L4.55213 9.29974L4.55201 9.3004L4.55154 9.30301L4.5497 9.31336L4.54248 9.35379L4.51494 9.50809L4.41544 10.0656L4.10264 11.8184C3.86791 13.134 3.61327 14.5616 3.53343 15.011C3.40914 15.712 3.41496 16.6602 3.46082 17.4865C3.46239 17.5149 3.46401 17.5431 3.46567 17.5711C3.76035 16.874 4.06074 16.0586 4.19183 15.3903L2.27846 10.9465ZM2.27846 10.9465C2.01259 10.6475 1.76484 10.212 1.56404 9.67365C1.27946 8.91069 1.12085 8.02444 1.12085 7.2433C1.12085 5.51337 1.59655 3.88613 2.48446 2.70445C3.3623 1.53618 4.65222 0.786499 6.35723 0.786499C9.00282 0.786499 11.2129 3.29939 11.2221 6.92045C11.222 8.82628 10.7657 10.5173 10.0245 11.7148C9.28311 12.9126 8.2956 13.5674 7.21466 13.5674C6.5413 13.5674 5.89833 13.0932 5.68746 12.5651L5.06093 10.9959L4.73264 12.6533L5.22311 12.7505M2.27846 10.9465L5.22311 12.7505M5.22311 12.7505L4.73263 12.6533L4.73262 12.6534L4.73256 12.6537L4.73232 12.6549L4.73139 12.6596L4.72773 12.6781L4.71375 12.7487L4.66305 13.0047L4.50203 13.8184C4.3802 14.4343 4.24497 15.1187 4.19186 15.3901L5.22311 12.7505ZM2.65484 11.2697C2.65485 11.2697 2.65417 11.2694 2.65278 11.2685C2.65413 11.2692 2.65483 11.2696 2.65484 11.2697Z" fill="#334155" stroke="#334155"/>
</svg>
