<svg width="18" height="20" viewBox="0 0 18 20" fill="none" xmlns="http://www.w3.org/2000/svg">
<path d="M5.62465 14.6161C4.60313 14.5855 3.61072 13.7434 3.08723 12.3667C3.44205 12.3619 3.79263 12.302 4.12208 12.1771L5.53563 11.6411L4.08127 11.2285C2.97631 10.9151 1.97962 9.62009 1.73817 7.84327C2.05179 7.96547 2.38485 8.03898 2.72717 8.04799L4.05241 8.08286L3.08027 7.18151C2.28416 6.44337 1.70895 5.11861 1.70895 3.5748C1.70895 3.14054 1.75468 2.7238 1.83852 2.3302C3.57851 4.82058 6.00034 6.47175 8.75322 6.65795L9.38219 6.70049L9.2804 6.07836C9.22906 5.76456 9.20708 5.42814 9.20708 5.06882C9.20708 3.84483 9.5649 2.75402 10.12 1.9818C10.6755 1.20899 11.3999 0.786499 12.1524 0.786499C12.9268 0.786499 13.6897 1.24251 14.2567 2.07983L14.4581 2.37719L14.8042 2.28132C15.1648 2.18143 15.5152 2.04841 15.8536 1.88354C15.6199 2.29544 15.3361 2.63896 15.0213 2.89962L13.5653 4.10525L15.427 3.77715C15.6618 3.73578 15.8934 3.68082 16.1215 3.61242C15.853 3.99797 15.5617 4.34689 15.248 4.65561L15.0911 4.81007L15.0991 5.03012C15.1063 5.2293 15.1114 5.42684 15.1114 5.62999C15.1114 8.70749 14.2643 12.0128 12.6622 14.5332C11.0641 17.0473 8.75091 18.735 5.79885 18.735C4.46074 18.735 3.18597 18.341 2.0266 17.6121C3.53235 17.424 4.8939 16.6301 5.9773 15.4548L6.72011 14.649L5.62465 14.6161Z" fill="#334155" stroke="#334155"/>
</svg>
