<svg width="21" height="20" viewBox="0 0 21 20" fill="none" xmlns="http://www.w3.org/2000/svg">
<path d="M19.4419 2.30029L19.4419 2.30031L19.4448 2.30714C19.9621 3.53094 20.25 5.72335 20.25 9.75732V9.75734V9.75736V9.75738V9.7574V9.75743V9.75745V9.75747V9.75749V9.75751V9.75753V9.75755V9.75758V9.7576V9.75762V9.75764V9.75766V9.75769V9.75771V9.75773V9.75776V9.75778V9.7578V9.75782V9.75785V9.75787V9.7579V9.75792V9.75794V9.75797V9.75799V9.75801V9.75804V9.75806V9.75809V9.75811V9.75814V9.75816V9.75819V9.75821V9.75824V9.75826V9.75829V9.75831V9.75834V9.75836V9.75839V9.75841V9.75844V9.75846V9.75849V9.75852V9.75854V9.75857V9.75859V9.75862V9.75865V9.75867V9.7587V9.75872V9.75875V9.75878V9.7588V9.75883V9.75886V9.75888V9.75891V9.75894V9.75896V9.75899V9.75902V9.75904V9.75907V9.7591V9.75912V9.75915V9.75918V9.75919V9.75922V9.75924V9.75927V9.7593V9.75932V9.75934V9.75937V9.75939V9.75942V9.75945V9.75946V9.75949V9.75951V9.75954V9.75957V9.75959V9.75962V9.75965V9.75967V9.7597V9.75973V9.75975V9.75978V9.75981V9.75984V9.75986V9.75989V9.75991V9.75994V9.75997V9.75999V9.76002V9.76005V9.76007V9.7601V9.76013V9.76015V9.76018V9.76021V9.76023V9.76026V9.76028V9.76031V9.76033V9.76036V9.76039V9.76041V9.76044V9.76046V9.76049V9.76051V9.76054V9.76056V9.76059V9.76062V9.76064V9.76066V9.76069V9.76071V9.76074V9.76076V9.76079V9.76081V9.76084V9.76086V9.76089V9.76091V9.76093V9.76096V9.76098V9.761V9.76103V9.76105V9.76107V9.7611V9.76112V9.76114V9.76116V9.76119V9.76121V9.76123V9.76125V9.76128V9.7613V9.76132V9.76134V9.76136V9.76138V9.76141V9.76143V9.76145V9.76147V9.76149V9.76151V9.76153V9.76155V9.76157V9.76159V9.76161V9.76163V9.76165V9.76167V9.76169V9.76171V9.76172V9.76174V9.76176V9.76178V9.7618V9.76181V9.76183V9.76185V9.76187V9.76188V9.7619V9.76192V9.76193V9.76195V9.76197V9.76198V9.762V9.76201V9.76203V9.76204V9.76206V9.76207V9.76209V9.7621V9.76212V9.76214V9.76216V9.76218V9.7622V9.76222V9.76223V9.76225V9.76227V9.76228V9.7623V9.76231V9.76233V9.76234V9.76236V9.76238V9.76239V9.76241V9.76242V9.76244V9.76245V9.76247V9.76249V9.76251V9.76253V9.76255V9.76257V9.76259V9.76261V9.76263V9.76265V9.76267V9.76269V9.76271V9.76274V9.76276V9.76278V9.7628V9.76282V9.76284V9.76286V9.76288V9.7629V9.76292V9.76294V9.76296V9.76299V9.76301V9.76303V9.76305V9.76307V9.76309V9.76311V9.76313V9.76315V9.76318V9.7632V9.76322V9.76324V9.76326V9.76328V9.7633V9.76333V9.76335V9.76337V9.76339V9.76341V9.76343V9.76346V9.76348V9.7635V9.76352V9.76354V9.76356V9.76359V9.76361V9.76363V9.76365V9.76367V9.7637V9.76372V9.76374V9.76376V9.76378V9.76381V9.76383V9.76385V9.76387V9.76389V9.76392V9.76394V9.76396V9.76398V9.764V9.76403V9.76405V9.76407V9.76409V9.76412V9.76414V9.76416V9.76418V9.7642V9.76423V9.76425V9.76427V9.76429V9.76432V9.76434V9.76436V9.76438V9.76441V9.76443V9.76445V9.76447V9.7645V9.76452V9.76454V9.76456V9.76459V9.76461V9.76463V9.76465V9.76468V9.7647V9.76472V9.76474V9.76477V9.76479V9.76481V9.76484V9.76486V9.76488V9.7649V9.76493V9.76495V9.76497V9.76499V9.76502V9.76504V9.76506V9.76509V9.76511V9.76513V9.76515V9.76518V9.7652V9.76522V9.76524V9.76527V9.76529V9.76531V9.76533V9.76536V9.76538V9.7654V9.76543V9.76545V9.76547V9.76549V9.76552V9.76554V9.76556V9.76558V9.76561V9.76563V9.76565V9.76567V9.7657V9.76572V9.76574V9.76577V9.76579V9.76581V9.76583V9.76586V9.76588V9.7659V9.76592V9.76595V9.76597V9.76599V9.76601V9.76604V9.76606V9.76608V9.7661V9.76613V9.76615V9.76617V9.76619V9.76622V9.76624V9.76626V9.76628V9.76631V9.76633V9.76635V9.76637V9.7664V9.76642V9.76644V9.76646V9.76649V9.76651V9.76653V9.76655V9.76657V9.7666V9.76662V9.76664V9.76666V9.76668V9.76671V9.76673V9.76675V9.76677V9.7668V9.76682V9.76684V9.76686V9.76688V9.7669V9.76693V9.76695V9.76697V9.76699V9.76701V9.76704V9.76706V9.76708V9.7671V9.76712V9.76714V9.76717V9.76719V9.76721V9.76723V9.76725V9.76727V9.76729V9.76732V9.76734V9.76736V9.76738V9.7674V9.76742V9.76744V9.76747V9.76749V9.76751V9.76753V9.76755V9.76757V9.76759V9.76761V9.76763V9.76766V9.76768V9.7677V9.76772V9.76774V9.76776V9.76778V9.7678V9.76782V9.76784V9.76786V9.76788V9.7679V9.76793V9.76795V9.76797V9.76799V9.76801V9.76803V9.76805V9.76807V9.76809V9.76811V9.76813V9.76815V9.76817V9.76819V9.76821V9.76823V9.76825V9.76827V9.76829V9.76831V9.76833V9.76835V9.76837V9.76839V9.76841V9.76842V9.76844V9.76846V9.76848V9.7685V9.76852V9.76854V9.76856V9.76858V9.7686V9.76862V9.76864V9.76866V9.76867V9.76869V9.76871V9.76873V9.76875V9.76877V9.76879V9.76881V9.76882V9.76884V9.76886V9.76888V9.7689V9.76892V9.76893V9.76895V9.76897V9.76899V9.76901V9.76902V9.76904V9.76906V9.76908V9.76909V9.76911V9.76913V9.76915V9.76917V9.76918V9.7692V9.76922V9.76923V9.76925V9.76927V9.76929V9.7693V9.76932V9.76934V9.76935V9.76937V9.76939V9.7694V9.76942V9.76944V9.76945V9.76947V9.76949V9.7695V9.76952V9.76953V9.76955V9.76957V9.76958V9.7696V9.76961V9.76963V9.76965V9.76966V9.76968V9.76969V9.76971V9.76972V9.76974V9.76975V9.76977V9.76978V9.7698V9.76981V9.76983V9.76984V9.76986V9.76987V9.76989V9.7699V9.76992V9.76993V9.76995V9.76997V9.76999V9.77V9.77003V9.77006V9.77008V9.7701V9.77012V9.77015V9.77018V9.7702V9.77023V9.77025V9.77028V9.7703V9.77033V9.77035V9.77037V9.7704V9.77042V9.77044V9.77047V9.77049V9.77051V9.77053V9.77055V9.77057V9.77059V9.77061V9.77063V9.77065V9.77067V9.77069V9.77071V9.77072V9.77074V9.77076V9.77077V9.77079V9.77081V9.77082V9.77084V9.77085V9.77087V9.77089V9.77091V9.77093V9.77094V9.77096V9.77098V9.77099V9.77101V9.77103V9.77104V9.77106V9.77107V9.77109V9.7711C20.25 13.7871 19.9619 15.9954 19.4466 17.2044L19.4465 17.2044L19.4432 17.2126C19.191 17.8347 18.9595 18.1212 18.717 18.282C18.4655 18.4489 18.1308 18.5303 17.548 18.5853C16.3768 18.6781 13.4069 18.735 10.8153 18.735C8.21832 18.735 5.2473 18.6781 4.07815 18.5836C3.49657 18.5287 3.16215 18.4473 2.91007 18.2802C2.66679 18.1189 2.43405 17.8318 2.17943 17.2094L2.17946 17.2094L2.17725 17.2042C1.66607 15.9941 1.37573 13.7845 1.37573 9.76938V9.76593V9.76593V9.76592V9.76591V9.7659V9.76589V9.76589V9.76588V9.76587V9.76586V9.76585V9.76585V9.76584V9.76583V9.76582V9.76581V9.7658V9.76579V9.76579V9.76578V9.76577V9.76576V9.76575V9.76575V9.76574V9.76573V9.76572V9.76571V9.76571V9.7657V9.76569V9.76568V9.76567V9.76566V9.76565V9.76564V9.76563V9.76562V9.76561V9.7656V9.76559V9.76558V9.76557V9.76556V9.76555V9.76554V9.76553V9.76551V9.7655V9.76549V9.76548V9.76547V9.76546V9.76544V9.76543V9.76542V9.7654V9.76539V9.76538V9.76536V9.76535V9.76534V9.76532V9.76532V9.7653V9.76529V9.76528V9.76527V9.76526V9.76525V9.76524V9.76523V9.76522V9.76521V9.7652V9.76519V9.76519V9.76518V9.76517V9.76516V9.76515V9.76515V9.76514V9.76513V9.76512V9.76511V9.76511V9.7651V9.76509V9.76508V9.76507V9.76507V9.76506V9.76505V9.76504V9.76503V9.76502V9.76501V9.76501V9.765V9.76499V9.76498V9.76497V9.76496V9.76495V9.76495V9.76494V9.76493V9.76492V9.76491V9.7649V9.76489V9.76488V9.76487V9.76486V9.76486V9.76485V9.76484V9.76483V9.76482V9.76481V9.7648V9.76479V9.76478V9.76477V9.76476V9.76475V9.76474V9.76473V9.76472V9.76471V9.7647V9.76469V9.76468V9.76467V9.76466V9.76465V9.76464V9.76463V9.76462V9.76461V9.7646V9.76459V9.76458V9.76457V9.76456V9.76455V9.76454V9.76453V9.76452V9.76451V9.7645V9.76449V9.76448V9.76447V9.76445V9.76444V9.76443V9.76442V9.76441V9.7644V9.76439V9.76438V9.76437V9.76436V9.76434V9.76433V9.76432V9.76431V9.7643V9.76429V9.76428V9.76427V9.76425V9.76424V9.76423V9.76422V9.76421V9.7642V9.76418V9.76417V9.76416V9.76415V9.76414V9.76412V9.76411V9.7641V9.76409V9.76408V9.76406V9.76405V9.76404V9.76403V9.76402V9.764V9.76399V9.76398V9.76397V9.76395V9.76394V9.76393V9.76392V9.7639V9.76389V9.76388V9.76387V9.76385V9.76384V9.76383V9.76381V9.7638V9.76379V9.76377V9.76376V9.76375V9.76374V9.76372V9.76371V9.7637V9.76368V9.76367V9.76366V9.76364V9.76363V9.76362V9.7636V9.76359V9.76357V9.76356V9.76355V9.76353V9.76352V9.76351V9.76349V9.76348V9.76346V9.76345V9.76344V9.76342V9.76341V9.76339V9.76338V9.76337V9.76335V9.76334V9.76332V9.76331V9.76329V9.76328V9.76326V9.76325V9.76324V9.76322V9.76321V9.76319V9.76318V9.76316V9.76315V9.76313V9.76312V9.7631V9.76309V9.76307V9.76306V9.76304V9.76303V9.76301V9.763V9.76298V9.76297V9.76295V9.76294V9.76292V9.76291V9.76289V9.76287V9.76286V9.76284V9.76283V9.76281V9.7628V9.76278V9.76276V9.76275V9.76273V9.76272V9.7627V9.76268V9.76267V9.76265V9.76264V9.76262V9.7626V9.76259V9.76257V9.76256V9.76254V9.76252V9.76251V9.76249V9.76247V9.76246V9.76244V9.76242V9.76241V9.76239V9.76237V9.76236V9.76234V9.76232V9.76231V9.76229V9.76227V9.76226V9.76224V9.76222V9.7622V9.76219V9.76217V9.76215V9.76214V9.76212V9.7621V9.76208V9.76207V9.76205V9.76203V9.76201V9.762V9.76198V9.76196V9.76194V9.76192V9.76191V9.76189V9.76187V9.76185V9.76184V9.76182V9.7618V9.76178V9.76176V9.76175V9.76173V9.76171V9.76169V9.76167V9.76165V9.76164V9.76162V9.7616V9.76158V9.76156V9.76154V9.76152V9.76151V9.76149V9.76147V9.76145V9.76143V9.76141V9.76139V9.76137V9.76135V9.76134V9.76132V9.7613V9.76128V9.76126V9.76124V9.76122V9.7612V9.76118V9.76116V9.76114V9.76112V9.7611V9.76108V9.76107V9.76105V9.76103V9.76101V9.76099V9.76097V9.76095V9.76093V9.76091V9.76089V9.76087V9.76085V9.76083V9.76081V9.76079V9.76077V9.76076V9.76075V9.76074V9.76074V9.76073V9.76072V9.76071V9.7607V9.76069V9.76069V9.76068V9.76067V9.76066V9.76065V9.76064V9.76063V9.76062V9.76061V9.7606V9.7606V9.76059V9.76058V9.76057V9.76056V9.76055V9.76055V9.76054V9.76053V9.76052V9.76051V9.7605V9.76049V9.76048V9.76047V9.76046V9.76045V9.76044V9.76043V9.76042V9.76041V9.7604V9.76039V9.76038V9.76037V9.76036V9.76035V9.76033V9.76032V9.76031V9.7603V9.76029V9.76027V9.76026V9.76025V9.76024V9.76022V9.76021V9.7602V9.76018V9.76018V9.76016V9.76015V9.76014V9.76013V9.76011V9.7601V9.76009V9.76008V9.76007V9.76006V9.76005V9.76004V9.76003V9.76003V9.76002V9.76001V9.76V9.75999V9.75999V9.75998V9.75997V9.75996V9.75995V9.75995V9.75994V9.75993V9.75992V9.75991V9.75991V9.7599V9.75989V9.75988V9.75987V9.75986V9.75986V9.75985V9.75984V9.75983V9.75982V9.75981V9.7598V9.7598V9.75979V9.75978V9.75977V9.75976V9.75975V9.75974V9.75973V9.75972V9.75972V9.75971V9.7597V9.75969V9.75968V9.75967V9.75966V9.75965V9.75964V9.75963V9.75962V9.75961V9.7596V9.75959V9.75958V9.75957V9.75956V9.75955V9.75954V9.75953V9.75953V9.75951V9.75951V9.75949V9.75949V9.75947V9.75947V9.75945V9.75944V9.75943V9.75942V9.75941V9.7594V9.75939V9.75938V9.75937V9.75936V9.75935V9.75934V9.75933V9.75932V9.75931V9.7593V9.75929V9.75928V9.75926V9.75925V9.75924V9.75923V9.75922V9.75921V9.7592V9.75919V9.75918V9.75917V9.75915V9.75914V9.75913V9.75912V9.75911V9.7591V9.75909V9.75907V9.75906V9.75905V9.75904V9.75903V9.75902V9.759V9.75899V9.75898V9.75897V9.75896V9.75895V9.75893V9.75892V9.75891V9.7589V9.75888V9.75887V9.75886V9.75885V9.75884V9.75882V9.75881V9.7588V9.75879V9.75877V9.75876V9.75875V9.75874V9.75872V9.75871V9.7587V9.75869V9.75867V9.75866V9.75865V9.75863V9.75862V9.75861V9.75859V9.75858V9.75857V9.75855V9.75854V9.75853V9.75852V9.7585V9.75849V9.75847V9.75846V9.75845V9.75843V9.75842V9.75841V9.75839V9.75838V9.75837V9.75835V9.75834V9.75832V9.75831V9.7583V9.75828V9.75827V9.75826V9.75824V9.75823V9.75821V9.7582V9.75818V9.75817V9.75815V9.75814V9.75813V9.75811V9.7581V9.75808V9.75807V9.75805V9.75804V9.75802V9.75801V9.75799V9.75798V9.75797V9.75795V9.75794V9.75792V9.75791V9.75789V9.75788V9.75786V9.75784V9.75783V9.75781V9.7578V9.75778V9.75777V9.75775V9.75774V9.75772V9.75771V9.75769V9.75768V9.75766V9.75764V9.75763V9.75761V9.7576V9.75758V9.75757V9.75755V9.75753V9.75752V9.7575V9.75749V9.75747V9.75745V9.75744V9.75742V9.7574V9.75739V9.75737V9.75736V9.75734V9.75732V9.75731V9.75729V9.75727V9.75726V9.75724V9.75722V9.75721V9.75719V9.75717V9.75716V9.75714V9.75712V9.7571V9.75709V9.75707V9.75705V9.75704V9.75702V9.757V9.75698V9.75697V9.75695V9.75693V9.75692V9.7569V9.75688V9.75686V9.75685V9.75683V9.75681V9.75679V9.75677V9.75676V9.75674V9.75672V9.7567V9.75669V9.75667V9.75665V9.75663V9.75661V9.7566V9.75658V9.75656V9.75654V9.75652V9.7565V9.75649V9.75647V9.75645V9.75643V9.75641V9.75639V9.75638V9.75636V9.75634V9.75632V9.7563V9.75628V9.75626V9.75624V9.75622V9.75621V9.75619V9.75617V9.75615V9.75613V9.75611V9.75609V9.75607V9.75605V9.75603V9.75601V9.75599V9.75598V9.75596V9.75594V9.75592V9.7559V9.75588V9.75586V9.75584V9.75582V9.7558V9.75578V9.75576V9.75574V9.75572V9.7557V9.75568V9.75566V9.75564V9.75562V9.7556C1.37573 5.7244 1.66582 3.53036 2.17797 2.3053L2.17799 2.30531L2.17952 2.30156C2.43435 1.67788 2.66718 1.39107 2.90932 1.23171C3.15995 1.06676 3.49355 0.988054 4.07546 0.941675L4.07546 0.941716L4.08191 0.941119C5.24303 0.833433 8.21179 0.786499 10.8153 0.786499C13.4141 0.786499 16.3812 0.833448 17.5431 0.942779L17.5431 0.942842L17.551 0.94346C18.1339 0.988978 18.4674 1.0678 18.717 1.23235C18.9581 1.39129 19.1895 1.67748 19.4419 2.30029ZM7.82857 14.9285V15.995L8.64838 15.3129L14.8591 10.1451L15.321 9.76077L14.8591 9.37642L8.64838 4.20864L7.82857 3.52649V4.59298V14.9285Z" fill="#334155" stroke="#334155"/>
</svg>
